#!OML:ASF H:\Terrain\Patient Classification 1\Animal2\Wednesday\Animal2.ASF
:FULLY-SPECIFIED
:DEGREES
429
root 21.5175 16.7826 -27.4373 47.1082 -11.1541 9.78684
lowerback 24.0265 0.0937462 6.96501
upperback -3.44221 2.39667 0.945538
thorax -16.7553 0.438631 -3.70623
lowerneck 16.997 21.6801 15.9736
upperneck -23.6344 28.2622 -42.0807
head -0.120214 17.8411 -15.9659
rclavicle 2.06736e-014 4.45278e-014
rhumerus -53.97 -25.8041 -30.4899
rradius 21.4431
rwrist 7.98175
rhand 16.3238 30.4341
rfingers 7.12502
rthumb 41.0962 5.54836
lclavicle 2.06736e-014 4.45278e-014
lhumerus -66.0992 15.7393 31.9635
lradius 14.1887
lwrist -13.9132
lhand -11.4059 19.5195
lfingers 7.12502
lthumb 14.6294 48.9835
rfemur -73.1056 -3.68372 -12.2789
rtibia 47.713
rfoot -22.3405 -12.1623
rtoes -17.7664
lfemur -74.8351 1.79043 -21.3952
ltibia 33.6756
lfoot -8.77546 -1.81032
ltoes -40.3007
430
root 21.5124 16.811 -27.4298 46.9619 -11.6022 9.86712
lowerback 24.0893 0.179464 6.4777
upperback -3.57142 2.45317 1.4016
thorax -16.9832 0.524475 -2.95936
lowerneck 16.7294 21.6649 15.7811
upperneck -23.3782 28.227 -42.1179
head -0.0416365 17.8028 -15.903
rclavicle -2.54444e-014 -1.43125e-014
rhumerus -53.2519 -25.0705 -29.4123
rradius 21.6404
rwrist 6.39336
rhand 15.973 28.4496
rfingers 7.12502
rthumb 40.7668 3.45952
lclavicle -2.54444e-014 -1.43125e-014
lhumerus -66.2295 15.3744 31.8244
lradius 14.255
lwrist -13.572
lhand -12.0824 20.427
lfingers 7.12502
lthumb 13.9776 49.9371
rfemur -72.8171 -3.1697 -12.8657
rtibia 47.1821
rfoot -22.2088 -12.3888
rtoes -16.9662
lfemur -74.3836 2.02683 -21.7742
ltibia 33.3101
lfoot -8.7355 -1.8324
ltoes -40.8622
431
root 21.5127 16.8417 -27.4117 46.7398 -12.0644 9.87299
lowerback 24.1454 0.00180472 6.80084
upperback -3.59251 2.30389 1.29657
thorax -17.0336 0.419281 -3.19993
lowerneck 16.5426 21.5364 16.1427
upperneck -23.5214 28.0824 -42.259
head 0.00890027 17.7112 -15.9989
rclavicle -4.29375e-014 4.77083e-015
rhumerus -52.7942 -24.9274 -28.9341
rradius 21.7957
rwrist 5.2345
rhand 14.7667 27.0064
rfingers 7.12502
rthumb 39.632 1.67037
lclavicle -4.29375e-014 4.77083e-015
lhumerus -65.7993 14.7851 31.4084
lradius 14.2434
lwrist -12.8133
lhand -12.6925 21.1304
lfingers 7.12502
lthumb 13.3896 50.6801
rfemur -72.4557 -2.62337 -13.3424
rtibia 46.6864
rfoot -22.1466 -12.5935
rtoes -16.5158
lfemur -73.7689 2.21763 -21.9921
ltibia 32.9026
lfoot -8.7301 -1.66857
ltoes -41.2511
432
root 21.5183 16.8679 -27.3899 46.4771 -12.5051 9.80597
lowerback 24.2321 -0.0898556 7.1037
upperback -3.61623 2.28587 1.30826
thorax -17.0978 0.379183 -3.34865
lowerneck 15.9925 21.294 16.6209
upperneck -23.1312 27.8863 -42.3396
head 0.258782 17.5194 -15.9929
rclavicle 1.90833e-014 -7.95139e-015
rhumerus -52.4739 -24.9666 -28.0563
rradius 21.7571
rwrist 4.70477
rhand 13.4315 26.5816
rfingers 7.12502
rthumb 38.3733 0.884907
lclavicle 1.90833e-014 -7.95139e-015
lhumerus -65.4307 14.5033 30.5634
lradius 14.1336
lwrist -12.801
lhand -13.2228 21.2862
lfingers 7.12502
lthumb 12.8785 50.8688
rfemur -72.0537 -2.14035 -13.637
rtibia 46.1798
rfoot -21.9918 -12.7329
rtoes -16.9186
lfemur -73.0725 2.27819 -21.9258
ltibia 32.4702
lfoot -8.64987 -1.20239
ltoes -41.7417
433
root 21.5205 16.8897 -27.3734 46.3491 -12.8578 9.79445
lowerback 24.0689 -0.192911 7.30139
upperback -3.61572 2.21221 1.41833
thorax -17.0138 0.338526 -3.3047
lowerneck 15.477 21.0224 17.0423
upperneck -22.9476 27.5884 -42.4566
head 0.414355 17.3001 -16.0556
rclavicle 4.77083e-015 -3.81667e-014
rhumerus -51.9275 -24.9168 -27.3197
rradius 21.6966
rwrist 4.22609
rhand 12.4244 26.0805
rfingers 7.12502
rthumb 37.422 0.126324
lclavicle 4.77083e-015 -3.81667e-014
lhumerus -65.1418 14.425 29.777
lradius 14.1802
lwrist -12.7191
lhand -13.6934 21.3396
lfingers 7.12502
lthumb 12.4247 50.9503
rfemur -71.7263 -1.74938 -13.9618
rtibia 45.6604
rfoot -21.781 -13.0121
rtoes -17.4922
lfemur -72.6004 2.31812 -21.9199
ltibia 32.0691
lfoot -8.61923 -0.944887
ltoes -42.0697
434
root 21.5193 16.9117 -27.356 46.3115 -13.3103 9.85082
lowerback 23.7226 -0.319078 7.37302
upperback -3.60048 2.04308 1.48719
thorax -16.8276 0.27106 -3.19982
lowerneck 15.5079 20.8005 17.1473
upperneck -23.5614 27.154 -42.6659
head 0.18352 17.1373 -16.3328
rclavicle -2.38542e-014 -1.43125e-014
rhumerus -51.1644 -24.5453 -27.0531
rradius 21.8207
rwrist 3.39804
rhand 11.553 25.4821
rfingers 7.12502
rthumb 36.5978 -0.685276
lclavicle -2.38542e-014 -1.43125e-014
lhumerus -64.7408 13.8984 29.9108
lradius 14.3623
lwrist -11.6738
lhand -14.4585 21.4902
lfingers 7.12502
lthumb 11.6869 51.1442
rfemur -71.5101 -1.38162 -14.4411
rtibia 45.1353
rfoot -21.59 -13.2371
rtoes -17.553
lfemur -72.2465 2.38868 -22.056
ltibia 31.7218
lfoot -8.60865 -0.725915
ltoes -42.4797
